HIERARCHY
ROOT pelvis
{
  OFFSET 0 100 0
  CHANNELS 6 Xposition Yposition Zposition Zrotation Xrotation Yrotation
  JOINT pelvis_right_femur
  {
    OFFSET -10.78128 -3.44521 -0.5502486
    CHANNELS 3 Zrotation Xrotation Yrotation
    JOINT right_femur_tibia
    {
      OFFSET -0.8047443 -44.0398 -0.1307829
      CHANNELS 3 Zrotation Xrotation Yrotation
      JOINT right_tibia_foot
      {
        OFFSET 3.006224 -47.83518 -5
        CHANNELS 3 Zrotation Xrotation Yrotation
        End Site
        {
          OFFSET 0 -5 15
        }
      }
    }
  }
  JOINT pelvis_left_femur
  {
    OFFSET 10.78128 -3.44521 -0.5502486
    CHANNELS 3 Zrotation Xrotation Yrotation
    JOINT left_femur_tibia
    {
      OFFSET 0.8047443 -44.0398 -0.1307829
      CHANNELS 3 Zrotation Xrotation Yrotation
      JOINT left_tibia_foot
      {
        OFFSET -4.370144 -48.10324 -4.275266
        CHANNELS 3 Zrotation Xrotation Yrotation
        End Site
        {
          OFFSET 0 -5 15
        }
      }
    }
  }
  JOINT pelvis_spine1
  {
    OFFSET 0 6.468898 -3.129235
    CHANNELS 3 Zrotation Xrotation Yrotation
    JOINT spine1
    {
      OFFSET 0 23.15396 4.99043
      CHANNELS 3 Zrotation Xrotation Yrotation
      JOINT spine2
      {
        OFFSET 0 20.79997 -5.064912
        CHANNELS 3 Zrotation Xrotation Yrotation
        JOINT neck
        {
          OFFSET 0 14.38658 9.616178
          CHANNELS 3 Zrotation Xrotation Yrotation
          End Site
          {
            OFFSET 0 20 0
          }
        }
      }
      JOINT right_manubrium
      {
        OFFSET -5.722621 16.35077 3.967754
        CHANNELS 3 Zrotation Xrotation Yrotation
        JOINT right_clavicle
        {
          OFFSET -13.16364 1.694482 -4.693211
          CHANNELS 3 Zrotation Xrotation Yrotation
          JOINT right_humerus
          {
            OFFSET -28.5034 -0.3100689 -2.792744
            CHANNELS 3 Zrotation Xrotation Yrotation
            JOINT right_radius
            {
              OFFSET -25.15693 0.02248979 -1.271978
              CHANNELS 3 Zrotation Xrotation Yrotation
              End Site
              {
                OFFSET -15 0 0
              }
            }
          }
        }
      }
      JOINT left_manubrium
      {
        OFFSET 5.722621 16.35077 3.967754
        CHANNELS 3 Zrotation Xrotation Yrotation
        JOINT left_clavicle
        {
          OFFSET 13.16364 1.694482 -4.693211
          CHANNELS 3 Zrotation Xrotation Yrotation
          JOINT left_humerus
          {
            OFFSET 29.39168 -1.063119 -2.237045
            CHANNELS 3 Zrotation Xrotation Yrotation
            JOINT left_radius
            {
              OFFSET 24.59957 -0.9528479 0.9047498
              CHANNELS 3 Zrotation Xrotation Yrotation
              End Site
              {
                OFFSET 15 -0 -0
              }
            }
          }
        }
      }
    }
  }
}
MOTION
Frames: 15
Frame Time: 0.0416666666667
-912.2305 103.9454 2809.769 -2.324216 -3.942059 -41.42062 3.018792 -23.51027 -3.77648 -0 5.331367 -0 -5.619811 5.625054 -3.998568 -5.493142 16.93354 -6.037479 -0 27.78168 -0 -1.996064 -17.32288 11.88826 4.034712 -4.706061 10.69085 4.942336 17.62839 -11.67828 0.3746468 20.21402 -1.663408 -4.427492 -23.15048 2.32265 -11.71646 -34.55451 12.59228 99.07765 6.035763 -20.59431 -0 0 25.35493 -16.09174 11.46352 5.881669 -1.293899 -27.42054 -10.58246 -93.15931 12.84915 35.19784 0 0 -23.05574 5.017456 12.56542 3.155949
-917.3393 104.04 2814.826 -3.193046 -3.768747 -41.56204 4.926765 -20.34213 -2.242109 -0 7.851519 -0 -6.037039 5.505583 -4.28288 -4.675494 15.56005 -5.557238 -0 36.65696 -0 -2.890734 -13.98369 12.11529 3.928013 -4.720971 10.55003 4.804213 17.73872 -11.42028 0.4564382 20.09793 -1.535336 -4.316786 -23.19235 2.509445 -11.31964 -34.75257 12.59691 98.62581 6.137643 -19.90283 -0 0 25.9388 -16.45136 12.17173 6.492998 -1.289512 -27.10036 -10.40188 -93.67655 13.04143 35.84096 0 0 -21.73678 4.800519 12.51798 3.676491
-922.4119 104.8345 2819.774 -4.304576 -3.935012 -42.1127 6.466683 -16.09358 -0.7256788 -0 10.73047 -0 -6.304367 4.127422 -4.469996 -3.819302 12.30879 -5.221866 -0 46.38031 -0 -3.574683 -10.4476 12.83874 3.735473 -4.686321 10.38996 4.598923 17.8145 -11.05256 0.5483673 19.91923 -1.369394 -4.116983 -23.15273 2.706699 -10.71888 -35.02854 12.59949 97.9075 6.562928 -18.84831 -0 0 26.85568 -16.83507 13.01802 7.208735 -1.276678 -26.63091 -10.1072 -94.379 13.19773 36.77765 0 0 -19.73375 4.474544 12.40374 4.303709
-927.2467 106.1244 2824.478 -5.215124 -4.435791 -43.02455 7.160772 -11.18684 0.5010383 -0 12.48384 -0 -6.354536 1.718377 -4.518744 -3.152514 7.229641 -5.03829 -0 55.00099 -0 -4.057323 -7.663469 13.83816 3.465439 -4.624214 10.22616 4.332524 17.82736 -10.58923 0.650238 19.67442 -1.181079 -3.84556 -23.02359 2.905723 -9.938288 -35.35854 12.59206 96.91788 7.294331 -17.46032 -0 0 28.06193 -17.24199 13.95854 8.019858 -1.241272 -26.02198 -9.698592 -95.20711 13.28856 37.93497 0 0 -17.1883 4.055684 12.23327 5.006441
-931.7489 107.554 2828.863 -5.672795 -5.150819 -44.12008 6.96808 -6.054934 1.365465 -0 12.60115 -0 -6.284498 -1.108148 -4.377525 -2.675385 0.9138492 -4.967302 -0 60.27869 -0 -4.348332 -6.178316 14.94355 3.13026 -4.557158 10.07145 4.015588 17.74796 -10.05288 0.7588161 19.36977 -0.9812309 -3.518357 -22.7997 3.096546 -9.012481 -35.69755 12.56798 95.67208 8.295172 -15.80576 -0 0 29.46311 -17.6682 14.92433 8.901453 -1.166726 -25.29984 -9.19017 -96.07471 13.28839 39.19798 0 0 -14.30381 3.582884 12.02569 5.731854
-935.9398 108.7459 2832.946 -5.74809 -5.857696 -45.20668 6.287508 -1.008249 1.918736 -0 11.54317 -0 -6.18902 -3.859658 -4.039343 -2.146937 -5.7811 -4.876626 -0 60.6976 -0 -4.486511 -5.876874 16.09078 2.747794 -4.498014 9.934715 3.665331 17.55458 -9.475658 0.8662392 19.02649 -0.7743885 -3.148926 -22.48545 3.26802 -7.992686 -35.98759 12.52327 94.22253 9.509982 -13.99285 -0 0 30.91803 -18.09554 15.82055 9.80073 -1.043121 -24.50914 -8.613587 -96.88441 13.18481 40.43118 0 0 -11.3175 3.114077 11.80599 6.408959
-939.9019 109.4136 2836.821 -5.670379 -6.280533 -46.17248 5.630001 3.779161 2.213125 -0 10.10838 -0 -6.052559 -6.498833 -3.548288 -1.273084 -12.124 -4.619695 -0 56.01874 -0 -4.592935 -6.201616 17.22626 2.341121 -4.442051 9.819669 3.303127 17.23995 -8.894304 0.9594347 18.68274 -0.5550878 -2.744229 -22.09682 3.409516 -6.942753 -36.1657 12.45856 92.66297 10.87526 -12.16416 -0 0 32.25333 -18.48989 16.53457 10.63724 -0.8718146 -23.70934 -8.016442 -97.55009 12.97981 41.50785 0 0 -8.453267 2.721345 11.6026 6.957089
-943.733 109.4219 2840.63 -5.588335 -6.190843 -46.99636 5.297376 8.133885 2.256586 -0 8.92558 -0 -5.812227 -9.188662 -2.939444 0.05244085 -17.63174 -4.130509 -0 47.26357 -0 -4.747068 -6.54936 18.21347 1.937618 -4.369526 9.725129 2.949496 16.81783 -8.343176 1.022277 18.38774 -0.3082114 -2.302639 -21.65692 3.512374 -5.926928 -36.17439 12.38134 91.11567 12.32511 -10.47898 -0 0 33.29383 -18.81437 16.9611 11.32226 -0.6629407 -22.96837 -7.456536 -98.01682 12.68413 42.33411 0 0 -5.885685 2.480831 11.44445 7.302074
-947.5331 108.8123 2844.525 -5.487966 -5.537217 -47.71103 5.274649 11.78137 2.082981 -0 8.415185 -0 -5.460403 -11.85756 -2.229432 1.616294 -21.9398 -3.46505 -0 36.48286 -0 -4.861662 -6.545615 18.86582 1.566446 -4.25777 9.64621 2.619993 16.32727 -7.849797 1.040613 18.1884 -0.01699672 -1.8187 -21.18906 3.570168 -4.99742 -35.97604 12.30655 89.70896 13.78851 -9.088051 -0 0 33.90426 -19.04889 17.0371 11.78733 -0.4288335 -22.35411 -6.993223 -98.26795 12.3129 42.85681 0 0 -3.733086 2.455128 11.35567 7.394006
-951.3983 107.7775 2848.64 -5.28215 -4.528737 -48.3718 5.294037 14.49743 1.82484 -0 8.892724 -0 -5.059689 -14.10888 -1.478611 2.929326 -24.76001 -2.843524 -0 26.24248 -0 -4.800765 -6.170299 19.08914 1.252756 -4.093627 9.57544 2.323924 15.82708 -7.433464 1.007771 18.11518 0.3254163 -1.292505 -20.71303 3.579115 -4.188652 -35.5658 12.25247 88.55303 15.19037 -8.104326 -0 0 34.0249 -19.19912 16.76507 12.00344 -0.1795011 -21.92192 -6.675628 -98.31819 11.88682 43.05796 0 0 -2.067204 2.673681 11.34843 7.217642
-955.4108 106.5785 2853.072 -4.922142 -3.566744 -49.03549 4.988075 16.39089 1.658426 -0 10.51027 -0 -4.685317 -15.37014 -0.7926096 3.440909 -26.05678 -2.650986 -0 18.68213 -0 -4.580884 -5.718895 19.02511 1.010795 -3.87916 9.505048 2.06659 15.37876 -7.106092 0.9269705 18.17345 0.7082297 -0.7374048 -20.24557 3.538642 -3.519045 -34.97612 12.23313 87.71954 16.46191 -7.579445 -0 0 33.68441 -19.28546 16.20862 11.97976 0.07661608 -21.70116 -6.530414 -98.19983 11.43448 42.94774 0 0 -0.9213472 3.121343 11.41669 6.793106
-959.6288 105.4588 2857.865 -4.423127 -3.044575 -49.72153 4.069485 17.86908 1.689871 -0 13.29087 -0 -4.390246 -14.98517 -0.2343297 2.817555 -26.11567 -3.276517 -0 14.71302 -0 -4.321504 -5.568779 19.0112 0.8416822 -3.629764 9.431138 1.853763 15.02835 -6.875439 0.8088995 18.3441 1.103341 -0.1809514 -19.80184 3.450244 -2.996964 -34.26943 12.2535 87.23364 17.55063 -7.502014 -0 0 32.9825 -19.32158 15.46421 11.74585 0.3291267 -21.6914 -6.556953 -97.94985 10.98905 42.56057 0 0 -0.2975756 3.74291 11.5357 6.168443
-964.075 104.6153 2863.002 -3.859643 -3.173561 -50.36136 2.503235 19.17811 1.911537 -0 17.47874 -0 -4.210253 -12.36944 0.2023443 1.111691 -25.25787 -4.825928 -0 13.9921 -0 -4.006831 -5.912226 19.29801 0.7389647 -3.368066 9.356993 1.69532 14.8008 -6.749927 0.6669777 18.59295 1.471526 0.3389289 -19.39751 3.315578 -2.629792 -33.52309 12.31104 87.08754 18.41743 -7.822576 -0 0 32.05117 -19.30159 14.62874 11.33171 0.563107 -21.87282 -6.734378 -97.60141 10.58211 41.9482 0 0 -0.1830119 4.460367 11.67079 5.406566
-968.7147 104.2182 2868.402 -3.391194 -3.914273 -50.79011 0.6361566 19.96577 2.183077 -0 23.69633 -0 -4.167785 -7.437617 0.5043103 -1.230762 -23.49658 -6.913714 -0 15.4464 -0 -3.447415 -6.674649 19.78822 0.6981821 -3.118516 9.293388 1.607023 14.70648 -6.743144 0.5144005 18.88273 1.767752 0.7751357 -19.05476 3.137041 -2.436991 -32.81837 12.39999 87.26896 19.02029 -8.486695 -0 0 31.01851 -19.20192 13.78123 10.75765 0.7572582 -22.22075 -7.033462 -97.18038 10.24245 41.17013 0 0 -0.5727556 5.188314 11.79059 4.573869
-973.4373 104.4133 2873.908 -3.235892 -4.986277 -50.82396 -0.8815993 19.33969 2.248363 -0 32.28339 -0 -4.271124 -1.05888 0.5617944 -3.509387 -20.57387 -8.790489 -0 17.75105 -0 -2.560101 -7.650662 20.10714 0.7239833 -2.905397 9.257423 1.611171 14.74825 -6.875798 0.3639073 19.18016 1.943033 1.068309 -18.81054 2.921173 -2.462203 -32.23863 12.51321 87.78284 19.29706 -9.452107 -0 0 29.99262 -18.98925 12.97984 10.03569 0.8820385 -22.71207 -7.423015 -96.70663 10.00048 40.28996 0 0 -1.48357 5.838603 11.87591 3.737714
